<svg width="40" height="40" viewBox="0 0 40 40" fill="none" xmlns="http://www.w3.org/2000/svg">
<g clip-path="url(#clip0_62_451)">
<path d="M20 31.4286L11.3 19.1429C9.87596 17.4615 8.95891 15.4102 8.65564 13.2278C8.35237 11.0455 8.67536 8.82184 9.587 6.81594C10.4986 4.81003 11.9614 3.1044 13.8049 1.8977C15.6485 0.690998 17.7969 0.0328819 20 0C23.0539 0.0301789 25.9714 1.26942 28.1135 3.44631C30.2556 5.62319 31.4476 8.56028 31.4286 11.6143C31.4297 14.2785 30.5227 16.8635 28.8571 18.9429L20 31.4286ZM20 2.85714C17.7026 2.88352 15.5097 3.82054 13.9026 5.46244C12.2955 7.10433 11.4057 9.3169 11.4286 11.6143C11.4381 13.7112 12.1925 15.7364 13.5571 17.3286L20 26.4571L26.6143 17.1429C27.8715 15.5735 28.5613 13.6251 28.5714 11.6143C28.5943 9.3169 27.7045 7.10433 26.0974 5.46244C24.4903 3.82054 22.2973 2.88352 20 2.85714Z" fill="#41383D"/>
<path d="M20 12.8571C21.578 12.8571 22.8571 11.5779 22.8571 9.99997C22.8571 8.42201 21.578 7.14282 20 7.14282C18.422 7.14282 17.1429 8.42201 17.1429 9.99997C17.1429 11.5779 18.422 12.8571 20 12.8571Z" fill="#41383D"/>
<path d="M37.1429 14.2856H34.2857V17.1428H37.1429V37.1428H2.85714V17.1428H5.71429V14.2856H2.85714C2.09938 14.2856 1.37266 14.5867 0.836838 15.1225C0.301019 15.6583 0 16.385 0 17.1428V37.1428C0 37.9005 0.301019 38.6273 0.836838 39.1631C1.37266 39.6989 2.09938 39.9999 2.85714 39.9999H37.1429C37.9006 39.9999 38.6273 39.6989 39.1632 39.1631C39.699 38.6273 40 37.9005 40 37.1428V17.1428C40 16.385 39.699 15.6583 39.1632 15.1225C38.6273 14.5867 37.9006 14.2856 37.1429 14.2856Z" fill="#41383D"/>
</g>
<defs>
<clipPath id="clip0_62_451">
<rect width="40" height="40" fill="white"/>
</clipPath>
</defs>
</svg>
