<?xml version="1.0" encoding="utf-8"?><svg viewBox="0 0 800 800" xmlns="http://www.w3.org/2000/svg" xmlns:xlink="http://www.w3.org/1999/xlink"><style>:root>svg{display:none}:root>svg:target{display:block}</style><svg viewBox="0 0 490 490" id="cloze" xmlns="http://www.w3.org/2000/svg"><path d="M456.851 0L245 212.564 33.149 0 .708 32.337l211.961 212.667L.708 457.678 33.149 490 245 277.443 456.851 490l32.441-32.322-211.961-212.674L489.292 32.337z"/></svg><svg viewBox="0 0 40 40" id="location" xmlns="http://www.w3.org/2000/svg"><g clip-path="url(#ba)"><path d="M20 31.429l-8.7-12.286A11.629 11.629 0 0120 0a11.543 11.543 0 0111.429 11.614 11.715 11.715 0 01-2.572 7.329L20 31.429zm0-28.572a8.671 8.671 0 00-8.571 8.757 8.843 8.843 0 002.128 5.715L20 26.457l6.614-9.314a8.915 8.915 0 001.957-5.529A8.671 8.671 0 0020 2.857z"/><path d="M20 12.857a2.857 2.857 0 100-5.714 2.857 2.857 0 000 5.714zm17.143 1.429h-2.857v2.857h2.857v20H2.857v-20h2.857v-2.857H2.857A2.857 2.857 0 000 17.143v20A2.857 2.857 0 002.857 40h34.286A2.857 2.857 0 0040 37.143v-20a2.857 2.857 0 00-2.857-2.857z"/></g><defs><clipPath id="ba"><path d="M0 0h40v40H0z"/></clipPath></defs></svg><svg viewBox="0 0 14 24" id="next" xmlns="http://www.w3.org/2000/svg"><path d="M12.001 22l-10-10 10-10"/></svg><svg viewBox="0 0 40 41" id="phone" xmlns="http://www.w3.org/2000/svg"><path d="M38.951 29.856l-5.594-5.582c-1.998-1.994-5.394-1.196-6.193 1.395-.6 1.795-2.597 2.791-4.395 2.393-3.996-.997-9.39-6.18-10.389-10.367-.6-1.794.6-3.788 2.398-4.386 2.597-.797 3.396-4.187 1.398-6.18l-5.594-5.582C8.984.15 6.587.15 5.188 1.547L1.392 5.335c-3.796 3.987.4 14.553 9.79 23.923 9.39 9.37 19.978 13.756 23.973 9.769l3.796-3.788c1.399-1.595 1.399-3.987 0-5.383z"/></svg><svg viewBox="0 0 14 24" id="prev" xmlns="http://www.w3.org/2000/svg"><path d="M2 22l10-10L2 2"/></svg><svg viewBox="0 0 32 32" id="telegram" xmlns="http://www.w3.org/2000/svg"><g clip-path="url(#fa)"><path d="M12.556 20.241l-.53 7.446c.758 0 1.086-.326 1.48-.716l3.55-3.394 7.357 5.388c1.35.752 2.3.356 2.664-1.241l4.83-22.63h.001c.428-1.995-.721-2.775-2.036-2.286L1.485 13.676c-1.937.752-1.908 1.832-.329 2.321l7.257 2.258L25.271 7.707c.793-.526 1.514-.235.921.29L12.556 20.241z"/></g><defs><clipPath id="fa"><path d="M0 0h32v32H0z"/></clipPath></defs></svg><svg viewBox="0 0 28 28" id="whatsapp" xmlns="http://www.w3.org/2000/svg"><path d="M13.321.016C5.926.368.091 6.526.113 13.93a13.826 13.826 0 001.512 6.263L.15 27.35a.54.54 0 00.654.635l7.013-1.661a13.821 13.821 0 005.967 1.448c7.558.116 13.86-5.886 14.096-13.441C28.133 6.232 21.448-.371 13.32.016zm8.368 21.56A10.802 10.802 0 0114 24.76c-1.7 0-3.329-.381-4.84-1.134l-.976-.486-4.3 1.018.906-4.393-.482-.942a10.753 10.753 0 01-1.181-4.936 10.8 10.8 0 013.184-7.689 10.893 10.893 0 017.69-3.185 10.8 10.8 0 017.688 3.185 10.803 10.803 0 013.185 7.689c0 2.878-1.15 5.653-3.185 7.689z"/><path d="M20.74 16.898l-2.69-.772a1.002 1.002 0 00-.992.261l-.658.67a.98.98 0 01-1.066.226c-1.272-.515-3.949-2.895-4.632-4.086a.98.98 0 01.077-1.086l.575-.743a1 1 0 00.123-1.018l-1.132-2.56a1.003 1.003 0 00-1.566-.359c-.75.635-1.641 1.6-1.75 2.67-.19 1.884.618 4.26 3.674 7.112 3.531 3.296 6.359 3.731 8.2 3.285 1.044-.253 1.879-1.267 2.405-2.097a1.003 1.003 0 00-.568-1.503z"/></svg></svg>